:SAMPLES-PER-SECOND 30
:FRAME-RANGE 1-1086
:FULLY-SPECIFIED
:DEGREES
374
root  -93.8391 38.4317 16.6074 -0.901672 3.61562 -2.28961
RightUpLeg  8.34261 -5.27986 5.47966
RightLeg  10.0069 -22.716 1.1686
RightFoot  -16.6481 0.0599374 3.72651
RightToes  -5.8209e-011 0 -3.6325e-017
Spine  4.19946 2.47463 4.9818
Spine1  4.31474 3.50229 -3.50684
HEad  -3.2344 20.1698 -2.58607
LeftShoulder1  1.88839 -1.95206 -28.5387
LeftArm  -2.8217 -9.27463 -24.3415
LeftForeArm  -10.3779 -55.0907 -17.1103
LeftHand  0.304283 3.11428 -16.9114
RightShoulder  12.0891 22.3641 40.4269
RightArm  2.29759 16.5251 13.955
RightForeArm  -28.5969 51.8705 16.2661
RightHand  -0.0162032 -5.20878 19.0501
LeftUpLeg  -17.3816 4.58854 1.59741
LeftLeg  0.734158 7.14569 -3.14181
LeftFoot  11.982 0.318401 -1.89875
LeftToes  5.72949e-011 5.22586e-011 2.45399e-011
375
root  -93.7767 38.3597 17.5737 -1.2765 3.23378 -1.59872
RightUpLeg  9.75765 -7.19808 4.24562
RightLeg  11.5606 -20.1483 0.188841
RightFoot  -17.5685 0.165938 5.23754
RightToes  -5.8209e-011 0 -3.6325e-017
Spine  4.10697 2.58778 3.12981
Spine1  4.26456 3.57926 -3.3891
HEad  -2.52548 19.9716 -1.78235
LeftShoulder1  1.85122 -1.8061 -28.7945
LeftArm  -3.10019 -8.57624 -23.4064
LeftForeArm  -10.0649 -55.7093 -17.5069
LeftHand  0.296289 3.20009 -17.1951
RightShoulder  12.3138 22.3024 41.3557
RightArm  2.80719 16.2079 14.1104
RightForeArm  -28.4442 51.6659 16.1403
RightHand  -0.00308594 -5.1352 19.2807
LeftUpLeg  -17.4765 4.3742 0.469293
LeftLeg  4.32281 6.87565 -2.13069
LeftFoot  13.0588 -0.746046 3.07892
LeftToes  5.72949e-011 5.22586e-011 2.45399e-011
376
root  -93.7307 38.3385 18.4981 -1.48671 3.50046 -0.679703
RightUpLeg  10.214 -11.8089 2.23459
RightLeg  14.649 -15.2148 -1.47357
RightFoot  -17.8962 0.328784 7.85279
RightToes  -5.8209e-011 0 -3.6325e-017
Spine  4.19856 2.57558 0.867561
Spine1  4.14016 3.44548 -3.08419
HEad  -2.03285 19.3013 -1.07009
LeftShoulder1  1.83541 -1.73857 -28.9444
LeftArm  -3.17003 -8.33593 -22.9326
LeftForeArm  -9.93981 -55.7676 -17.5377
LeftHand  0.298349 3.17653 -17.1077
RightShoulder  12.439 21.9769 42.3951
RightArm  3.29227 15.8869 14.1807
RightForeArm  -28.3094 51.3945 15.9787
RightHand  0.0631364 -4.75323 19.0589
LeftUpLeg  -17.8432 5.82014 -1.07921
LeftLeg  8.66096 4.9504 -1.21994
LeftFoot  9.85813 -0.587278 2.8157
LeftToes  5.72949e-011 5.22586e-011 2.45399e-011
377
root  -93.6099 38.4056 19.3193 -1.37613 3.1991 0.0621796
RightUpLeg  9.21828 -17.4738 -0.0516437
RightLeg  19.3148 -8.13757 -3.3129
RightFoot  -16.9571 0.457147 11.6375
RightToes  -5.8209e-011 0 -3.6325e-017
Spine  4.09131 2.73055 0.19396
Spine1  4.43299 3.85803 -4.27456
HEad  -1.93707 18.2169 -0.679541
LeftShoulder1  1.8705 -1.78992 -29.2747
LeftArm  -3.28497 -8.52337 -22.5187
LeftForeArm  -10.1332 -55.4852 -17.3581
LeftHand  0.312792 3.08982 -17.1538
RightShoulder  12.4763 21.7091 43.0212
RightArm  3.23452 15.4811 14.3152
RightForeArm  -28.116 51.0147 15.756
RightHand  0.120712 -4.4246 19.1082
LeftUpLeg  -17.1908 7.31127 -1.89236
LeftLeg  10.1184 3.98731 -1.49682
LeftFoot  7.75932 -0.477609 2.55736
LeftToes  5.72949e-011 5.22586e-011 2.45399e-011
378
root  -93.4361 38.4387 20.0612 -1.27562 2.33032 0.621597
RightUpLeg  6.32578 -16.3368 -1.44227
RightLeg  26.8226 -6.27202 -3.66072
RightFoot  -14.8807 0.393412 15.9254
RightToes  -5.8209e-011 0 -3.6325e-017
Spine  4.40662 2.90013 0.0559954
Spine1  4.44779 4.32246 -5.97384
HEad  -1.60244 17.374 -0.645935
LeftShoulder1  1.86408 -1.7473 -29.4418
LeftArm  -3.55098 -8.12606 -22.106
LeftForeArm  -9.98419 -55.6502 -17.4599
LeftHand  0.300041 3.16545 -17.1056
RightShoulder  12.5488 21.9135 42.9119
RightArm  3.20829 14.7777 15.0097
RightForeArm  -27.7461 50.9139 15.6814
RightHand  0.144159 -4.28551 19.0176
LeftUpLeg  -16.6012 7.36599 -2.31537
LeftLeg  11.5321 4.60297 -1.38741
LeftFoot  5.97757 -0.495006 3.01096
LeftToes  5.72949e-011 5.22586e-011 2.45399e-011
379
root  -93.2595 38.4282 20.7394 -1.03088 1.58067 1.25804
RightUpLeg  2.02664 -15.6064 -3.10197
RightLeg  35.8173 -4.793 -3.96065
RightFoot  -10.8684 -0.157039 19.8302
RightToes  -5.8209e-011 0 -3.6325e-017
Spine  4.89071 2.95394 -0.844447
Spine1  4.04806 4.34136 -6.60652
HEad  -1.01839 16.7481 -0.707823
LeftShoulder1  1.83573 -1.6371 -29.6538
LeftArm  -3.89035 -7.33899 -21.6404
LeftForeArm  -9.72236 -56.1026 -17.7557
LeftHand  0.293526 3.21726 -17.1914
RightShoulder  12.5397 22.1789 42.3976
RightArm  3.80171 14.6617 15.5175
RightForeArm  -27.8563 50.8963 15.6773
RightHand  0.11769 -4.45065 19.3111
LeftUpLeg  -16.2868 6.90971 -2.82936
LeftLeg  12.8844 5.96565 -1.22577
LeftFoot  4.03733 -0.432242 3.01941
LeftToes  5.72949e-011 5.22586e-011 2.45399e-011
380
root  -93.1021 38.4017 21.367 -0.758011 1.25996 1.76218
RightUpLeg  -3.16652 -14.7306 -4.21957
RightLeg  45.0406 -4.42158 -5.03325
RightFoot  -4.57813 -1.18228 19.3056
RightToes  -5.8209e-011 0 -3.6325e-017
Spine  5.24315 2.89473 -1.80971
Spine1  3.93964 4.19683 -6.73713
HEad  -1.18774 15.7869 -0.914727
LeftShoulder1  1.84156 -1.66387 -29.5808
LeftArm  -4.08688 -7.02656 -21.4448
LeftForeArm  -9.33806 -56.5078 -18.0159
LeftHand  0.291103 3.19355 -17.1545
RightShoulder  12.4868 22.3483 41.9036
RightArm  4.28913 15.0956 15.5036
RightForeArm  -28.0321 51.0653 15.7799
RightHand  0.0910673 -4.59911 19.2384
LeftUpLeg  -16.158 7.11253 -3.46331
LeftLeg  14.2908 6.03662 -1.10224
LeftFoot  2.2278 -0.36901 2.98783
LeftToes  5.72949e-011 5.22586e-011 2.45399e-011
